<?xml version="1.0" encoding="UTF-8" standalone="no"?>
<svg
   xmlns:dc="http://purl.org/dc/elements/1.1/"
   xmlns:cc="http://creativecommons.org/ns#"
   xmlns:rdf="http://www.w3.org/1999/02/22-rdf-syntax-ns#"
   xmlns:svg="http://www.w3.org/2000/svg"
   xmlns="http://www.w3.org/2000/svg"
   xmlns:sodipodi="http://sodipodi.sourceforge.net/DTD/sodipodi-0.dtd"
   xmlns:inkscape="http://www.inkscape.org/namespaces/inkscape"
   version="1.1"
   width="64"
   height="64"
   viewBox="0 0 63.993999 63.993999"
   xml:space="preserve"
   id="svg2"
   inkscape:version="0.48.4 r9939"
   sodipodi:docname="Sun.svg"><sodipodi:namedview
     pagecolor="#ffffff"
     bordercolor="#666666"
     borderopacity="1"
     objecttolerance="10"
     gridtolerance="10"
     guidetolerance="10"
     inkscape:pageopacity="0"
     inkscape:pageshadow="2"
     inkscape:window-width="1301"
     inkscape:window-height="744"
     id="namedview12"
     showgrid="false"
     inkscape:zoom="5.2149125"
     inkscape:cx="56.075083"
     inkscape:cy="28.60852"
     inkscape:window-x="65"
     inkscape:window-y="24"
     inkscape:window-maximized="1"
     inkscape:current-layer="svg2" /><style
     id="style4">
	.style0{
		fill:	#ffffff;
		fill-rule:	evenodd;
	}
</style><metadata
     id="metadata6"><rdf:RDF><cc:Work
         rdf:about=""><dc:format>image/svg+xml</dc:format><dc:type
           rdf:resource="http://purl.org/dc/dcmitype/StillImage" /><dc:title></dc:title></cc:Work></rdf:RDF></metadata><defs
     id="defs8" /><g
     id="g2993"><rect
       y="0.0044649383"
       x="0.0029379923"
       height="63.98354"
       width="63.986603"
       id="rect2989"
       style="fill:#ffe6d5" /><path
       style="fill:#71c837"
       id="path10"
       class="style0"
       d="m 54 34 h -4 c -1.1 0 -2 -0.9 -2 -2 0 -1.1 0.9 -2 2 -2 h 4 c 1.1 0 2 0.9 2 2 0 1.1 -0.9 2 -2 2 z M 46.1 20.7 c -0.8 0.8 -2 0.8 -2.8 0 -0.8 -0.8 -0.8 -2 0 -2.8 l 2.8 -2.8 c 0.8 -0.8 2 -0.8 2.8 0 0.8 0.8 0.8 2 0 2.8 l -2.8 2.8 z m -14.1 23.3 c -6.6 0 -12 -5.4 -12 -12 0 -6.6 5.4 -12 12 -12 6.6 0 12 5.4 12 12 0 6.6 -5.4 12 -12 12 z m 0 -20 c -4.4 0 -8 3.6 -8 8 0 4.4 3.6 8 8 8 4.4 0 8 -3.6 8 -8 0 -4.4 -3.6 -8 -8 -8 z m 0 -8 c -1.1 0 -2 -0.9 -2 -2 V 10 c 0 -1.1 0.9 -2 2 -2 1.1 0 2 0.9 2 2 v 4 c 0 1.1 -0.9 2 -2 2 z m -14.1 4.7 -2.8 -2.8 c -0.8 -0.8 -0.8 -2 0 -2.8 0.8 -0.8 2 -0.8 2.8 0 l 2.8 2.8 c 0.8 0.8 0.8 2 0 2.8 -0.8 0.8 -2 0.8 -2.8 0 z m -1.9 11.3 c 0 1.1 -0.9 2 -2 2 h -4 C 8.9 34 8 33.1 8 32 c 0 -1.1 0.9 -2 2 -2 h 4 c 1.1 0 2 0.9 2 2 z m 1.9 11.3 c 0.8 -0.8 2 -0.8 2.8 0 0.8 0.8 0.8 2 0 2.8 l -2.8 2.8 c -0.8 0.8 -2 0.8 -2.8 0 -0.8 -0.8 -0.8 -2 0 -2.8 l 2.8 -2.8 z m 14.1 4.7 c 1.1 0 2 0.9 2 2 v 4 c 0 1.1 -0.9 2 -2 2 -1.1 0 -2 -0.9 -2 -2 v -4 c 0 -1.1 0.9 -2 2 -2 z m 14.1 -4.7 2.8 2.8 c 0.8 0.8 0.8 2 0 2.8 -0.8 0.8 -2 0.8 -2.8 0 l -2.8 -2.8 c -0.8 -0.8 -0.8 -2 0 -2.8 0.8 -0.8 2 -0.8 2.8 0 z" /></g></svg>