<?xml version="1.0" standalone="yes"?>
<svg width="54" height="76">
<path style="fill:#ffffff; stroke:none;" d="M0 0L0 76L54 76L54 0L0 0z"/>
<path style="fill:#4f2121; stroke:none;" d="M26 13L27 14L26 13z"/>
<path style="fill:#b14a4a; stroke:none;" d="M26 14L27 15L26 14z"/>
<path style="fill:#351616; stroke:none;" d="M27 14L28 15L27 14z"/>
<path style="fill:#2c1212; stroke:none;" d="M25 15L26 16L25 15z"/>
<path style="fill:#c95454; stroke:none;" d="M26 15C22.2164 26.5341 17.8891 28.9987 6 29C13.3638 39.4249 17.9411 40.7439 13 54L16 53C16.333 55.2887 17.6043 55.5392 20.0046 54.5694C23.027 53.3484 25.5623 50.0644 29 49.9861C33.3712 49.8866 37.7618 54.7665 42 56L39.4923 42.5139L50 32L47 29C36.5955 29 33.0094 27.5273 30 17L26 15z"/>
<path style="fill:#a14343; stroke:none;" d="M27 15L28 16L27 15z"/>
<path style="fill:#471d1d; stroke:none;" d="M28 15L29 16L28 15z"/>
<path style="fill:#973f3f; stroke:none;" d="M25 16L26 17L25 16z"/>
<path style="fill:#994040; stroke:none;" d="M28 16L29 17L28 16z"/>
<path style="fill:#5e2727; stroke:none;" d="M29 16L30 17L29 16z"/>
<path style="fill:#c55252; stroke:none;" d="M28 17L29 18L28 17z"/>
<path style="fill:#783232; stroke:none;" d="M24 18L25 19L24 18z"/>
<path style="fill:#803535; stroke:none;" d="M30 18L31 19L30 18z"/>
<path style="fill:#ba4e4e; stroke:none;" d="M24 19L25 20L24 19z"/>
<path style="fill:#c25151; stroke:none;" d="M30 19L31 20L30 19z"/>
<path style="fill:#271010; stroke:none;" d="M23 20L24 21L23 20z"/>
<path style="fill:#1d0c0c; stroke:none;" d="M31 20L32 21L31 20z"/>
<path style="fill:#bb4e4e; stroke:none;" d="M23 21L24 22L23 21z"/>
<path style="fill:#b04949; stroke:none;" d="M31 21L32 22L31 21z"/>
<path style="fill:#010000; stroke:none;" d="M22 22L23 23L22 22z"/>
<path style="fill:#c75353; stroke:none;" d="M23 22L24 23L23 22z"/>
<path style="fill:#070202; stroke:none;" d="M32 22L33 23L32 22z"/>
<path style="fill:#7c3434; stroke:none;" d="M22 23L23 24L22 23z"/>
<path style="fill:#5a2525; stroke:none;" d="M32 23L33 24L32 23z"/>
<path style="fill:#040101; stroke:none;" d="M21 24L22 25L21 24z"/>
<path style="fill:#000000; stroke:none;" d="M33 24L34 25L33 24z"/>
<path style="fill:#301414; stroke:none;" d="M21 25L22 26L21 25z"/>
<path style="fill:#190a0a; stroke:none;" d="M33 25L34 26L33 25z"/>
<path style="fill:#c25151; stroke:none;" d="M21 26L22 27L21 26z"/>
<path style="fill:#8c3a3a; stroke:none;" d="M33 26L34 27L33 26z"/>
<path style="fill:#130707; stroke:none;" d="M20 27L21 28L20 27z"/>
<path style="fill:#060202; stroke:none;" d="M34 27L35 28L34 27z"/>
<path style="fill:#020000; stroke:none;" d="M4 28L5 29L4 28z"/>
<path style="fill:#2c1212; stroke:none;" d="M5 28L6 29L5 28z"/>
<path style="fill:#3c1919; stroke:none;" d="M6 28L7 29L6 28z"/>
<path style="fill:#502121; stroke:none;" d="M7 28L8 29L7 28z"/>
<path style="fill:#592525; stroke:none;" d="M8 28L9 29L8 28z"/>
<path style="fill:#5f2727; stroke:none;" d="M9 28L10 29L9 28z"/>
<path style="fill:#662a2a; stroke:none;" d="M10 28L11 29L10 28z"/>
<path style="fill:#7d3434; stroke:none;" d="M11 28L12 29L11 28z"/>
<path style="fill:#943e3e; stroke:none;" d="M12 28L13 29L12 28z"/>
<path style="fill:#983f3f; stroke:none;" d="M13 28L14 29L13 28z"/>
<path style="fill:#9b4141; stroke:none;" d="M14 28L15 29L14 28z"/>
<path style="fill:#9c4141; stroke:none;" d="M15 28L16 29L15 28z"/>
<path style="fill:#b84d4d; stroke:none;" d="M16 28L17 29L16 28M34 28L35 29L34 28z"/>
<path style="fill:#9b4141; stroke:none;" d="M35 28L36 29L35 28z"/>
<path style="fill:#994040; stroke:none;" d="M36 28L37 29L36 28z"/>
<path style="fill:#8f3c3c; stroke:none;" d="M37 28L38 29L37 28z"/>
<path style="fill:#733030; stroke:none;" d="M38 28L39 29L38 28z"/>
<path style="fill:#632929; stroke:none;" d="M39 28L40 29L39 28z"/>
<path style="fill:#592525; stroke:none;" d="M40 28L41 29L40 28z"/>
<path style="fill:#461d1d; stroke:none;" d="M41 28L42 29L41 28z"/>
<path style="fill:#321414; stroke:none;" d="M42 28L43 29L42 28z"/>
<path style="fill:#230e0e; stroke:none;" d="M43 28L44 29L43 28z"/>
<path style="fill:#140808; stroke:none;" d="M44 28L45 29L44 28z"/>
<path style="fill:#050202; stroke:none;" d="M45 28L46 29L45 28z"/>
<path style="fill:#7f3535; stroke:none;" d="M5 29L6 30L5 29z"/>
<path style="fill:#c65353; stroke:none;" d="M47 29L48 30L47 29z"/>
<path style="fill:#140808; stroke:none;" d="M48 29L49 30L48 29z"/>
<path style="fill:#783232; stroke:none;" d="M6 30L7 31L6 30z"/>
<path style="fill:#bf5050; stroke:none;" d="M46 30L47 31L46 30z"/>
<path style="fill:#100606; stroke:none;" d="M47 30L48 31L47 30z"/>
<path style="fill:#070202; stroke:none;" d="M48 30L49 31L48 30z"/>
<path style="fill:#120707; stroke:none;" d="M6 31L7 32L6 31z"/>
<path style="fill:#bf5050; stroke:none;" d="M7 31L8 32L7 31z"/>
<path style="fill:#8f3c3c; stroke:none;" d="M49 31L50 32L49 31z"/>
<path style="fill:#050101; stroke:none;" d="M50 31L51 32L50 31z"/>
<path style="fill:#000000; stroke:none;" d="M51 31L52 32L51 31z"/>
<path style="fill:#b24a4a; stroke:none;" d="M8 32L9 33L8 32z"/>
<path style="fill:#c85454; stroke:none;" d="M50 32L51 33L50 32z"/>
<path style="fill:#060202; stroke:none;" d="M51 32L52 33L51 32z"/>
<path style="fill:#8a3a3a; stroke:none;" d="M9 33L10 34L9 33z"/>
<path style="fill:#963e3e; stroke:none;" d="M49 33L50 34L49 33z"/>
<path style="fill:#000000; stroke:none;" d="M50 33L51 34L50 33z"/>
<path style="fill:#592525; stroke:none;" d="M10 34L11 35L10 34z"/>
<path style="fill:#471d1d; stroke:none;" d="M48 34L49 35L48 34z"/>
<path style="fill:#321414; stroke:none;" d="M11 35L12 36L11 35z"/>
<path style="fill:#240f0f; stroke:none;" d="M47 35L48 36L47 35z"/>
<path style="fill:#1e0c0c; stroke:none;" d="M12 36L13 37L12 36z"/>
<path style="fill:#b84d4d; stroke:none;" d="M45 36L46 37L45 36z"/>
<path style="fill:#100606; stroke:none;" d="M46 36L47 37L46 36z"/>
<path style="fill:#090303; stroke:none;" d="M13 37L14 38L13 37z"/>
<path style="fill:#ba4e4e; stroke:none;" d="M14 37L15 38L14 37z"/>
<path style="fill:#913c3c; stroke:none;" d="M44 37L45 38L44 37z"/>
<path style="fill:#9b4141; stroke:none;" d="M15 38L16 39L15 38z"/>
<path style="fill:#6b2c2c; stroke:none;" d="M43 38L44 39L43 38z"/>
<path style="fill:#863838; stroke:none;" d="M16 39L17 40L16 39z"/>
<path style="fill:#3c1919; stroke:none;" d="M42 39L43 40L42 39z"/>
<path style="fill:#773131; stroke:none;" d="M16 40L17 41L16 40z"/>
<path style="fill:#be4f4f; stroke:none;" d="M40 40L41 41L40 40z"/>
<path style="fill:#090303; stroke:none;" d="M41 40L42 41L41 40z"/>
<path style="fill:#a54545; stroke:none;" d="M16 41L17 42L16 41z"/>
<path style="fill:#b24a4a; stroke:none;" d="M39 41L40 42L39 41z"/>
<path style="fill:#c35151; stroke:none;" d="M38 42L39 43L38 42z"/>
<path style="fill:#331515; stroke:none;" d="M15 43L16 44L15 43z"/>
<path style="fill:#250f0f; stroke:none;" d="M39 43L40 44L39 43z"/>
<path style="fill:#8e3b3b; stroke:none;" d="M15 44L16 45L15 44z"/>
<path style="fill:#783232; stroke:none;" d="M39 44L40 45L39 44z"/>
<path style="fill:#b34b4b; stroke:none;" d="M15 45L16 46L15 45z"/>
<path style="fill:#bc4f4f; stroke:none;" d="M39 45L40 46L39 45z"/>
<path style="fill:#c75353; stroke:none;" d="M15 46L16 47L15 46z"/>
<path style="fill:#c45252; stroke:none;" d="M39 46L40 47L39 46z"/>
<path style="fill:#351616; stroke:none;" d="M14 47L15 48L14 47z"/>
<path style="fill:#0c0404; stroke:none;" d="M40 47L41 48L40 47z"/>
<path style="fill:#9d4242; stroke:none;" d="M14 48L15 49L14 48z"/>
<path style="fill:#6a2c2c; stroke:none;" d="M40 48L41 49L40 48z"/>
<path style="fill:#bf5050; stroke:none;" d="M14 49L15 50L14 49z"/>
<path style="fill:#853737; stroke:none;" d="M28 49L29 50L28 49z"/>
<path style="fill:#1f0c0c; stroke:none;" d="M29 49L30 50L29 49z"/>
<path style="fill:#b44b4b; stroke:none;" d="M30 49L31 50L30 49z"/>
<path style="fill:#c05050; stroke:none;" d="M40 49L41 50L40 49z"/>
<path style="fill:#000000; stroke:none;" d="M13 50L14 51L13 50z"/>
<path style="fill:#c75353; stroke:none;" d="M14 50L15 51L14 50z"/>
<path style="fill:#b74c4c; stroke:none;" d="M26 50L27 51L26 50z"/>
<path style="fill:#130707; stroke:none;" d="M27 50L28 51L27 50z"/>
<path style="fill:#7d3434; stroke:none;" d="M31 50L32 51L31 50z"/>
<path style="fill:#050202; stroke:none;" d="M41 50L42 51L41 50z"/>
<path style="fill:#3a1818; stroke:none;" d="M13 51L14 52L13 51z"/>
<path style="fill:#c75353; stroke:none;" d="M24 51L25 52L24 51z"/>
<path style="fill:#491e1e; stroke:none;" d="M25 51L26 52L25 51z"/>
<path style="fill:#000000; stroke:none;" d="M32 51L33 52L32 51z"/>
<path style="fill:#b84d4d; stroke:none;" d="M33 51L34 52L33 51z"/>
<path style="fill:#0e0505; stroke:none;" d="M41 51L42 52L41 51z"/>
<path style="fill:#ac4848; stroke:none;" d="M13 52L14 53L13 52z"/>
<path style="fill:#963f3f; stroke:none;" d="M23 52L24 53L23 52z"/>
<path style="fill:#020000; stroke:none;" d="M24 52L25 53L24 52z"/>
<path style="fill:#512121; stroke:none;" d="M34 52L35 53L34 52z"/>
<path style="fill:#5c2626; stroke:none;" d="M41 52L42 53L41 52z"/>
<path style="fill:#040101; stroke:none;" d="M12 53L13 54L12 53z"/>
<path style="fill:#552323; stroke:none;" d="M14 53L15 54L14 53z"/>
<path style="fill:#bf5050; stroke:none;" d="M15 53L16 54L15 53z"/>
<path style="fill:#150808; stroke:none;" d="M22 53L23 54L22 53z"/>
<path style="fill:#040101; stroke:none;" d="M35 53L36 54L35 53z"/>
<path style="fill:#a14343; stroke:none;" d="M36 53L37 54L36 53z"/>
<path style="fill:#b84d4d; stroke:none;" d="M41 53L42 54L41 53z"/>
<path style="fill:#020000; stroke:none;" d="M12 54L13 55L12 54z"/>
<path style="fill:#130707; stroke:none;" d="M13 54L14 55L13 54z"/>
<path style="fill:#1a0a0a; stroke:none;" d="M14 54L15 55L14 54z"/>
<path style="fill:#542323; stroke:none;" d="M20 54L21 55L20 54z"/>
<path style="fill:#010000; stroke:none;" d="M21 54L22 55L21 54z"/>
<path style="fill:#331515; stroke:none;" d="M37 54L38 55L37 54z"/>
<path style="fill:#070202; stroke:none;" d="M42 54L43 55L42 54z"/>
<path style="fill:#7a3333; stroke:none;" d="M14 55L15 56L14 55z"/>
<path style="fill:#8e3b3b; stroke:none;" d="M15 55L16 56L15 55z"/>
<path style="fill:#b64c4c; stroke:none;" d="M16 55L17 56L16 55z"/>
<path style="fill:#983f3f; stroke:none;" d="M18 55L19 56L18 55z"/>
<path style="fill:#130707; stroke:none;" d="M19 55L20 56L19 55z"/>
<path style="fill:#070202; stroke:none;" d="M38 55L39 56L38 55z"/>
<path style="fill:#7b3333; stroke:none;" d="M39 55L40 56L39 55z"/>
<path style="fill:#190a0a; stroke:none;" d="M42 55L43 56L42 55z"/>
<path style="fill:#361616; stroke:none;" d="M14 56L15 57L14 56z"/>
<path style="fill:#ffffff; stroke:none;" d="M15 56L16 57L15 56z"/>
<path style="fill:#c75353; stroke:none;" d="M16 56L17 57L16 56z"/>
<path style="fill:#3d1919; stroke:none;" d="M17 56L18 57L17 56z"/>
<path style="fill:#331515; stroke:none;" d="M40 56L41 57L40 56z"/>
<path style="fill:#c25151; stroke:none;" d="M41 56L42 57L41 56z"/>
<path style="fill:#4e2020; stroke:none;" d="M42 56L43 57L42 56z"/>
<path style="fill:#210d0d; stroke:none;" d="M15 57L16 58L15 57z"/>
<path style="fill:#471d1d; stroke:none;" d="M42 57L43 58L42 57z"/>
</svg>
