<svg height="64" width="64" xmlns="http://www.w3.org/2000/svg" xmlns:xlink="http://www.w3.org/1999/xlink"><filter id="a" color-interpolation-filters="sRGB" height="2.14597" width="1.16371" x="-.081855" y="-.572985"><feGaussianBlur stdDeviation="3.8198993"/></filter><radialGradient id="b" cx="88" cy="136" gradientTransform="matrix(1 0 0 .14285714 0 116.57143)" gradientUnits="userSpaceOnUse" r="56"><stop offset="0"/><stop offset="1" stop-opacity="0"/></radialGradient><path d="m144 136c0 4.41828-25.07205 8-56 8-30.927946 0-56-3.58172-56-8s25.072054-8 56-8c30.92795 0 56 3.58172 56 8z" fill="url(#b)" opacity=".4" transform="matrix(.558035725 0 0 .488279625 -17.10714375 -6.737516)"/><path d="m144 136c0 4.41828-25.07205 8-56 8-30.927946 0-56-3.58172-56-8s25.072054-8 56-8c30.92795 0 56 3.58172 56 8z" filter="url(#a)" opacity=".3" transform="matrix(.35731065 0 0 .136661355 .556648 41.08258225)"/><g transform="matrix(.25 0 0 .25 0 52)"><path d="m238-138.4375v116.875c0 48.125 0 51.5625-51.5625 51.5625h-116.875002c-51.5625.000001-51.5625-3.437499-51.5625-51.562499v-116.875001c0-48.125 0-51.5625 51.5625-51.5625h116.875002c51.5625 0 51.5625 3.4375 51.5625 51.5625z" fill="#ffe6d5"/><g fill-rule="evenodd" transform="matrix(3.03873 0 0 3.1019336 28.690157 -179.81547)"><path d="m55.362728 34.356934h-4c-1.1 0-2-.900001-2-2.000001 0-1.099999.9-1.999999 2-1.999999h4c1.1 0 2 .9 2 1.999999 0 1.1-.9 2.000001-2 2.000001zm-7.900003-13.300001c-.8.8-2 .8-2.8 0s-.8-1.999999 0-2.8l2.8-2.8c.800003-.8 2.000003-.8 2.800003 0s.8 2 0 2.8zm-14.100001 23.300001c-6.6 0-11.999999-5.4-11.999999-12.000001 0-6.6 5.399999-11.999999 11.999999-11.999999 6.600001 0 12.000001 5.399999 12.000001 11.999999 0 6.600001-5.4 12.000001-12.000001 12.000001zm0-20c-4.4 0-7.999999 3.599999-7.999999 7.999999 0 4.400001 3.599999 8.000001 7.999999 8.000001 4.400001 0 8.000001-3.6 8.000001-8.000001 0-4.4-3.6-7.999999-8.000001-7.999999zm0-8.000001c-1.099999 0-1.999999-.9-1.999999-2v-4c0-1.1000002.9-1.9999999 1.999999-1.9999999 1.1 0 2.000001.8999997 2.000001 1.9999999v4c0 1.1-.900001 2-2.000001 2zm-14.1 4.7-2.8-2.8c-.8-.8-.8-2 0-2.8s2-.8 2.8 0l2.8 2.8c.8.800001.8 2 0 2.8s-1.999999.8-2.8 0zm-1.9 11.3c0 1.1-.9 2.000001-2 2.000001h-4c-1.1 0-2.0000008-.900001-2.0000008-2.000001 0-1.099999.9000008-1.999999 2.0000008-1.999999h4c1.1 0 2 .9 2 1.999999zm1.9 11.300001c.800001-.8 2-.8 2.8 0s.8 2 0 2.8l-2.8 2.8c-.8.8-2 .8-2.8 0s-.8-2 0-2.8zm14.1 4.7c1.1 0 2.000001.9 2.000001 2v4c0 1.1-.900001 2-2.000001 2-1.099999 0-1.999999-.9-1.999999-2v-4c0-1.1.9-2 1.999999-2zm14.100001-4.7 2.800003 2.8c.8.8.8 2 0 2.8s-2 .8-2.800003 0l-2.8-2.8c-.8-.8-.8-2 0-2.8s2-.8 2.8 0z" fill="#4d4d4d"/><path d="m54 34h-4c-1.1 0-2-.9-2-2s.9-2 2-2h4c1.1 0 2 .9 2 2s-.9 2-2 2zm-7.9-13.3c-.8.8-2 .8-2.8 0s-.8-2 0-2.8l2.8-2.8c.8-.8 2-.8 2.8 0s.8 2 0 2.8zm-14.1 23.3c-6.6 0-12-5.4-12-12s5.4-12 12-12 12 5.4 12 12-5.4 12-12 12zm0-20c-4.4 0-8 3.6-8 8s3.6 8 8 8 8-3.6 8-8-3.6-8-8-8zm0-8c-1.1 0-2-.9-2-2v-4c0-1.1.9-2 2-2s2 .9 2 2v4c0 1.1-.9 2-2 2zm-14.1 4.7-2.8-2.8c-.8-.8-.8-2 0-2.8s2-.8 2.8 0l2.8 2.8c.8.8.8 2 0 2.8s-2 .8-2.8 0zm-1.9 11.3c0 1.1-.9 2-2 2h-4c-1.1 0-2-.9-2-2s.9-2 2-2h4c1.1 0 2 .9 2 2zm1.9 11.3c.8-.8 2-.8 2.8 0s.8 2 0 2.8l-2.8 2.8c-.8.8-2 .8-2.8 0s-.8-2 0-2.8zm14.1 4.7c1.1 0 2 .9 2 2v4c0 1.1-.9 2-2 2s-2-.9-2-2v-4c0-1.1.9-2 2-2zm14.1-4.7 2.8 2.8c.8.8.8 2 0 2.8s-2 .8-2.8 0l-2.8-2.8c-.8-.8-.8-2 0-2.8s2-.8 2.8 0z" fill="#71c837"/></g></g></svg>