<?xml version="1.0" encoding="UTF-8" standalone="no"?>
<svg
   width="64"
   height="64"
   version="1.1"
   viewBox="0 0 16.933 16.933"
   id="svg452"
   sodipodi:docname="brightness-adjust.svg"
   inkscape:version="1.2.1 (9c6d41e410, 2022-07-14)"
   xml:space="preserve"
   xmlns:inkscape="http://www.inkscape.org/namespaces/inkscape"
   xmlns:sodipodi="http://sodipodi.sourceforge.net/DTD/sodipodi-0.dtd"
   xmlns:xlink="http://www.w3.org/1999/xlink"
   xmlns="http://www.w3.org/2000/svg"
   xmlns:svg="http://www.w3.org/2000/svg"><defs
     id="defs456"><linearGradient
       inkscape:collect="always"
       id="linearGradient23119"><stop
         style="stop-color:#02679b;stop-opacity:1;"
         offset="0"
         id="stop23115" /><stop
         style="stop-color:#039de2;stop-opacity:1;"
         offset="1"
         id="stop23117" /></linearGradient><linearGradient
       inkscape:collect="always"
       id="linearGradient21498"><stop
         style="stop-color:#02679a;stop-opacity:1;"
         offset="0"
         id="stop21494" /><stop
         style="stop-color:#039de2;stop-opacity:1;"
         offset="1"
         id="stop21496" /></linearGradient><linearGradient
       inkscape:collect="always"
       xlink:href="#linearGradient21498"
       id="linearGradient21500"
       x1="66.830086"
       y1="127.44463"
       x2="125.66866"
       y2="93.474167"
       gradientUnits="userSpaceOnUse" /><linearGradient
       inkscape:collect="always"
       xlink:href="#linearGradient23119"
       id="linearGradient23121"
       x1="0.9672606"
       y1="14.854012"
       x2="16.003963"
       y2="14.854012"
       gradientUnits="userSpaceOnUse" /></defs><sodipodi:namedview
     id="namedview454"
     pagecolor="#ffffff"
     bordercolor="#000000"
     borderopacity="0.25"
     inkscape:showpageshadow="2"
     inkscape:pageopacity="0.0"
     inkscape:pagecheckerboard="0"
     inkscape:deskcolor="#d1d1d1"
     showgrid="false"
     inkscape:zoom="11.068044"
     inkscape:cx="11.790701"
     inkscape:cy="33.022999"
     inkscape:window-width="2560"
     inkscape:window-height="1010"
     inkscape:window-x="1680"
     inkscape:window-y="0"
     inkscape:window-maximized="1"
     inkscape:current-layer="svg452" /><g
     id="g18876"
     transform="matrix(0.26792651,0,0,0.26792651,-17.112951,-21.770147)"
     style="fill:url(#linearGradient21500);fill-opacity:1"><path
       id="path18874"
       style="fill:url(#linearGradient21500);fill-opacity:1;stroke-width:1.805;stroke-linecap:square;stroke-linejoin:round;paint-order:markers stroke fill"
       d="m 69.253593,83.60575 c -2.56416,0 -4.62866,2.06398 -4.62866,4.62814 v 36.71662 c 0,2.56415 2.0645,4.62814 4.62866,4.62814 h 52.436597 c 2.56416,0 4.62866,-2.06399 4.62866,-4.62814 V 88.23389 c 0,-2.56416 -2.0645,-4.62814 -4.62866,-4.62814 z" /></g><g
     id="g18896"
     transform="matrix(0.1685221,0,0,0.1685221,-36.52631,-21.092415)"
     style="fill:#f7cb37;fill-opacity:1"><rect
       style="fill:#f7cb37;fill-opacity:1;stroke-width:1.805;stroke-linecap:square;stroke-linejoin:round;paint-order:markers stroke fill"
       id="rect18880"
       width="4.5967131"
       height="10.707575"
       x="264.68625"
       y="180.15379"
       rx="2.2983565"
       ry="2.2983565" /><rect
       style="fill:#f7cb37;fill-opacity:1;stroke-width:1.805;stroke-linecap:square;stroke-linejoin:round;paint-order:markers stroke fill"
       id="rect18882"
       width="4.5967131"
       height="10.707575"
       x="264.68625"
       y="140.0287"
       rx="2.2983565"
       ry="2.2983565" /><rect
       style="fill:#f7cb37;fill-opacity:1;stroke-width:1.805;stroke-linecap:square;stroke-linejoin:round;paint-order:markers stroke fill"
       id="rect18884"
       width="4.5967131"
       height="10.707575"
       x="303.47559"
       y="-57.090561"
       rx="2.2983565"
       ry="2.2983565"
       transform="rotate(45)" /><rect
       style="fill:#f7cb37;fill-opacity:1;stroke-width:1.805;stroke-linecap:square;stroke-linejoin:round;paint-order:markers stroke fill"
       id="rect18886"
       width="4.5967131"
       height="10.707575"
       x="303.47559"
       y="-97.215652"
       rx="2.2983565"
       ry="2.2983565"
       transform="rotate(45)" /><rect
       style="fill:#f7cb37;fill-opacity:1;stroke-width:1.805;stroke-linecap:square;stroke-linejoin:round;paint-order:markers stroke fill"
       id="rect18888"
       width="4.5967131"
       height="10.707575"
       x="163.14668"
       y="-252.27585"
       rx="2.2983565"
       ry="2.2983565"
       transform="rotate(90)" /><rect
       style="fill:#f7cb37;fill-opacity:1;stroke-width:1.805;stroke-linecap:square;stroke-linejoin:round;paint-order:markers stroke fill"
       id="rect18890"
       width="4.5967131"
       height="10.707575"
       x="163.14668"
       y="-292.40094"
       rx="2.2983565"
       ry="2.2983565"
       transform="rotate(90)" /><rect
       style="fill:#f7cb37;fill-opacity:1;stroke-width:1.805;stroke-linecap:square;stroke-linejoin:round;paint-order:markers stroke fill"
       id="rect18892"
       width="4.5967131"
       height="10.707575"
       x="-74.097672"
       y="-291.06519"
       rx="2.2983565"
       ry="2.2983565"
       transform="rotate(135)" /><rect
       style="fill:#f7cb37;fill-opacity:1;stroke-width:1.805;stroke-linecap:square;stroke-linejoin:round;paint-order:markers stroke fill"
       id="rect18894"
       width="4.5967131"
       height="10.707575"
       x="-74.097672"
       y="-331.19028"
       rx="2.2983565"
       ry="2.2983565"
       transform="rotate(135)" /></g><path
     id="path18898"
     style="fill:#f7cb37;fill-opacity:1;stroke-width:0.312534;stroke-linecap:square;stroke-linejoin:round;paint-order:markers stroke fill"
     d="M 8.4665383,5.0123041 A 1.7764095,1.7764095 0 0 0 6.690065,6.7887748 1.7764095,1.7764095 0 0 0 8.4665383,8.565157 1.7764095,1.7764095 0 0 0 10.242921,6.7887748 1.7764095,1.7764095 0 0 0 8.4665383,5.0123041 Z m 0,0.5044011 A 1.2720383,1.2720383 0 0 1 9.7385194,6.7887748 1.2720383,1.2720383 0 0 1 8.4665383,8.0607559 1.2720383,1.2720383 0 0 1 7.1944715,6.7887748 1.2720383,1.2720383 0 0 1 8.4665383,5.5167052 Z" /><path
     id="path18900"
     style="fill:#35495e;fill-opacity:1;stroke-width:0.194377;stroke-linecap:square;stroke-linejoin:round;paint-order:markers stroke fill"
     d="M 8.4789219,5.6851185 V 7.8946307 A 1.1048163,1.1048163 0 0 0 9.5824737,6.7899108 1.1048163,1.1048163 0 0 0 8.4789219,5.6851185 Z" /><rect
     style="fill:url(#linearGradient23121);fill-opacity:1;stroke-width:0.35747;stroke-linecap:square;stroke-linejoin:round;paint-order:markers stroke fill"
     id="rect18904"
     width="16.522274"
     height="1.1266572"
     x="0.20536409"
     y="14.307211"
     rx="0.56332862"
     ry="0.56332862" /><rect
     style="fill:#f7cb37;fill-opacity:1;stroke-width:0.483607;stroke-linecap:square;stroke-linejoin:round;paint-order:markers stroke fill"
     id="rect18906"
     width="1.5703574"
     height="2.8648255"
     x="2.415952"
     y="13.438126"
     rx="0.78517872"
     ry="0.78517872" /></svg>
